<svg viewBox="0 0 1433 221" fill="none" xmlns="http://www.w3.org/2000/svg">
<g clip-path="url(#clip0_115_7)">
<path d="M89.8844 85.812C78.4428 85.812 70.007 88.43 64.5771 93.6659C59.3412 98.708 56.7232 106.465 56.7232 116.937V146.898C56.7232 158.534 59.3412 166.291 64.5771 170.169C70.007 174.048 78.4428 175.987 89.8844 175.987H155.334V218.166H88.1391C56.9171 218.166 34.4217 211.379 20.653 197.804C6.88435 184.229 0 165.515 0 141.662V120.428C0 96.5748 6.88435 77.861 20.653 64.2862C34.4217 50.5176 56.9171 43.6332 88.1391 43.6332H155.334V85.812H89.8844Z" fill="black"/>
<path d="M364.937 120.428V141.372C364.937 165.612 357.568 185.005 342.83 199.549C328.285 213.9 307.438 221.075 280.289 221.075H259.927C232.777 221.075 211.833 213.9 197.095 199.549C182.356 185.005 174.987 165.612 174.987 141.372V120.428C174.987 96.187 182.356 76.8914 197.095 62.5409C211.833 47.9965 232.777 40.7243 259.927 40.7243H280.289C307.438 40.7243 328.285 47.9965 342.83 62.5409C357.568 76.8914 364.937 96.187 364.937 120.428ZM308.214 115.773C308.214 104.526 306.081 96.187 301.814 90.7571C297.742 85.1332 290.373 82.3213 279.707 82.3213H260.508C249.842 82.3213 242.376 85.1332 238.11 90.7571C233.844 96.187 231.71 104.526 231.71 115.773V145.735C231.71 157.176 233.844 165.709 238.11 171.333C242.376 176.763 249.842 179.478 260.508 179.478H279.707C290.373 179.478 297.742 176.763 301.814 171.333C306.081 165.709 308.214 157.176 308.214 145.735V115.773Z" fill="black"/>
<path d="M395.935 0H451.204V218.166H395.935V0Z" fill="black"/>
<path d="M491.951 0H547.219V218.166H491.951V0Z" fill="black"/>
<path d="M759.299 147.189H634.508V148.353C634.508 159.407 636.933 166.776 641.781 170.46C646.629 174.145 654.968 175.987 666.797 175.987H755.227V218.166H669.997C652.931 218.166 638.484 216.324 626.654 212.639C615.019 208.761 605.614 203.428 598.438 196.64C591.457 189.659 586.318 181.32 583.021 171.624C579.918 161.928 578.367 151.262 578.367 139.626V117.519C578.367 94.4416 585.058 76.0187 598.438 62.25C611.819 48.2874 633.733 41.3061 664.179 41.3061H675.815C692.104 41.3061 705.679 43.2454 716.539 47.1239C727.399 51.0024 735.931 56.5292 742.137 63.7045C748.537 70.6858 752.997 79.1215 755.518 89.0117C758.039 98.9019 759.299 109.859 759.299 121.882V147.189ZM682.214 80.2851H659.525C650.216 80.2851 643.72 82.3213 640.035 86.3937C636.351 90.4662 634.508 97.2536 634.508 106.756V110.537H706.94V106.756C706.94 97.2536 705 90.4662 701.122 86.3937C697.437 82.3213 691.135 80.2851 682.214 80.2851Z" fill="black"/>
<path d="M871.646 85.812C860.204 85.812 851.768 88.43 846.339 93.6659C841.103 98.708 838.485 106.465 838.485 116.937V146.898C838.485 158.534 841.103 166.291 846.339 170.169C851.768 174.048 860.204 175.987 871.646 175.987H928.369V218.166H869.9C838.678 218.166 816.183 211.379 802.414 197.804C788.646 184.229 781.761 165.515 781.761 141.662V120.428C781.761 96.5748 788.646 77.861 802.414 64.2862C816.183 50.5176 838.678 43.6332 869.9 43.6332H995.273V85.812H871.646Z" fill="black"/>
<path d="M939.873 85.812V43.6332H968.089V8.14486H1018.99V43.6332H1078.63V85.812H1018.99V156.498C1018.99 163.867 1020.55 169.006 1023.65 171.915C1026.75 174.63 1031.79 175.987 1038.77 175.987H1078.63V218.166H1032.38C1008.33 218.166 991.069 213.124 980.597 203.04C970.319 192.762 965.18 177.248 965.18 156.498V85.812H939.873Z" fill="black"/>
<path d="M1286.75 120.428V141.372C1286.75 165.612 1279.38 185.005 1264.64 199.549C1250.09 213.9 1229.25 221.075 1202.1 221.075H1181.73C1154.59 221.075 1133.64 213.9 1118.9 199.549C1104.16 185.005 1096.8 165.612 1096.8 141.372V120.428C1096.8 96.187 1104.16 76.8914 1118.9 62.5409C1133.64 47.9965 1154.59 40.7243 1181.73 40.7243H1202.1C1229.25 40.7243 1250.09 47.9965 1264.64 62.5409C1279.38 76.8914 1286.75 96.187 1286.75 120.428ZM1230.02 115.773C1230.02 104.526 1227.89 96.187 1223.62 90.7571C1219.55 85.1332 1212.18 82.3213 1201.52 82.3213H1182.32C1171.65 82.3213 1164.18 85.1332 1159.92 90.7571C1155.65 96.187 1153.52 104.526 1153.52 115.773V145.735C1153.52 157.176 1155.65 165.709 1159.92 171.333C1164.18 176.763 1171.65 179.478 1182.32 179.478H1201.52C1212.18 179.478 1219.55 176.763 1223.62 171.333C1227.89 165.709 1230.02 157.176 1230.02 145.735V115.773Z" fill="black"/>
<path d="M1314.25 108.501C1314.25 100.162 1315.51 92.1145 1318.03 84.3575C1320.55 76.6005 1324.53 69.7162 1329.96 63.7045C1335.39 57.6928 1342.37 52.8447 1350.9 49.1601C1359.63 45.4755 1370.01 43.6332 1382.03 43.6332H1433.23V85.812H1394.54C1384.65 85.812 1377.96 87.5573 1374.47 91.048C1371.17 94.5386 1369.52 100.55 1369.52 109.083V218.166H1314.25V108.501Z" fill="black"/>
</g>
<defs>
<clipPath id="clip0_115_7">
<rect width="1433" height="221" fill="white"/>
</clipPath>
</defs>
</svg>
