<svg viewBox="0 0 2752 348" fill="none" xmlns="http://www.w3.org/2000/svg">
<path d="M1403.65 162.117C1392.21 162.117 1383.77 164.735 1378.34 169.971C1373.1 175.013 1370.49 182.77 1370.49 193.242V223.203C1370.49 234.839 1373.1 242.596 1378.34 246.474C1383.77 250.353 1392.21 252.292 1403.65 252.292H1469.1V294.471H1401.9C1370.68 294.471 1348.18 287.683 1334.42 274.109C1320.65 260.534 1313.76 241.82 1313.76 217.967V196.732C1313.76 172.88 1320.65 154.166 1334.42 140.591C1348.18 126.822 1370.68 119.938 1401.9 119.938H1469.1V162.117H1403.65Z" fill="black"/>
<path d="M1678.7 196.732V217.676C1678.7 241.917 1671.33 261.309 1656.59 275.854C1642.05 290.204 1621.2 297.38 1594.05 297.38H1573.69C1546.54 297.38 1525.6 290.204 1510.86 275.854C1496.12 261.309 1488.75 241.917 1488.75 217.676V196.732C1488.75 172.492 1496.12 153.196 1510.86 138.846C1525.6 124.301 1546.54 117.029 1573.69 117.029H1594.05C1621.2 117.029 1642.05 124.301 1656.59 138.846C1671.33 153.196 1678.7 172.492 1678.7 196.732ZM1621.98 192.078C1621.98 180.83 1619.84 172.492 1615.58 167.062C1611.5 161.438 1604.14 158.626 1593.47 158.626H1574.27C1563.61 158.626 1556.14 161.438 1551.87 167.062C1547.61 172.492 1545.47 180.83 1545.47 192.078V222.04C1545.47 233.481 1547.61 242.014 1551.87 247.638C1556.14 253.068 1563.61 255.783 1574.27 255.783H1593.47C1604.14 255.783 1611.5 253.068 1615.58 247.638C1619.84 242.014 1621.98 233.481 1621.98 222.04V192.078Z" fill="black"/>
<path d="M1709.7 76.3047H1764.97V294.471H1709.7V76.3047Z" fill="black"/>
<path d="M1805.71 76.3047H1860.98V294.471H1805.71V76.3047Z" fill="black"/>
<path d="M2073.06 223.494H1948.27V224.658C1948.27 235.711 1950.7 243.08 1955.54 246.765C1960.39 250.45 1968.73 252.292 1980.56 252.292H2068.99V294.471H1983.76C1966.69 294.471 1952.25 292.628 1940.42 288.944C1928.78 285.065 1919.38 279.732 1912.2 272.945C1905.22 265.964 1900.08 257.625 1896.78 247.929C1893.68 238.232 1892.13 227.566 1892.13 215.931V193.823C1892.13 170.746 1898.82 152.323 1912.2 138.555C1925.58 124.592 1947.5 117.611 1977.94 117.611H1989.58C2005.87 117.611 2019.44 119.55 2030.3 123.429C2041.16 127.307 2049.69 132.834 2055.9 140.009C2062.3 146.99 2066.76 155.426 2069.28 165.316C2071.8 175.207 2073.06 186.163 2073.06 198.187V223.494ZM1995.98 156.59H1973.29C1963.98 156.59 1957.48 158.626 1953.8 162.698C1950.11 166.771 1948.27 173.558 1948.27 183.061V186.842H2020.7V183.061C2020.7 173.558 2018.76 166.771 2014.88 162.698C2011.2 158.626 2004.9 156.59 1995.98 156.59Z" fill="black"/>
<path d="M2185.41 162.117C2173.97 162.117 2165.53 164.735 2160.1 169.971C2154.87 175.013 2152.25 182.77 2152.25 193.242V223.203C2152.25 234.839 2154.87 242.596 2160.1 246.474C2165.53 250.353 2173.97 252.292 2185.41 252.292H2242.13V294.471H2183.66C2152.44 294.471 2129.95 287.683 2116.18 274.109C2102.41 260.534 2095.52 241.82 2095.52 217.967V196.732C2095.52 172.88 2102.41 154.166 2116.18 140.591C2129.95 126.822 2152.44 119.938 2183.66 119.938H2309.04V162.117H2185.41Z" fill="black"/>
<path d="M2253.64 162.117V119.938H2281.85V84.4495H2332.76V119.938H2392.39V162.117H2332.76V232.802C2332.76 240.172 2334.31 245.311 2337.41 248.219C2340.51 250.934 2345.56 252.292 2352.54 252.292H2392.39V294.471H2346.14C2322.09 294.471 2304.83 289.429 2294.36 279.345C2284.08 269.066 2278.94 253.552 2278.94 232.802V162.117H2253.64Z" fill="black"/>
<path d="M2600.51 196.732V217.676C2600.51 241.917 2593.14 261.309 2578.4 275.854C2563.86 290.204 2543.01 297.38 2515.86 297.38H2495.5C2468.35 297.38 2447.4 290.204 2432.67 275.854C2417.93 261.309 2410.56 241.917 2410.56 217.676V196.732C2410.56 172.492 2417.93 153.196 2432.67 138.846C2447.4 124.301 2468.35 117.029 2495.5 117.029H2515.86C2543.01 117.029 2563.86 124.301 2578.4 138.846C2593.14 153.196 2600.51 172.492 2600.51 196.732ZM2543.78 192.078C2543.78 180.83 2541.65 172.492 2537.39 167.062C2533.31 161.438 2525.94 158.626 2515.28 158.626H2496.08C2485.41 158.626 2477.95 161.438 2473.68 167.062C2469.41 172.492 2467.28 180.83 2467.28 192.078V222.04C2467.28 233.481 2469.41 242.014 2473.68 247.638C2477.95 253.068 2485.41 255.783 2496.08 255.783H2515.28C2525.94 255.783 2533.31 253.068 2537.39 247.638C2541.65 242.014 2543.78 233.481 2543.78 222.04V192.078Z" fill="black"/>
<path d="M2628.02 184.806C2628.02 176.467 2629.28 168.419 2631.8 160.662C2634.32 152.905 2638.29 146.021 2643.72 140.009C2649.15 133.997 2656.13 129.149 2664.67 125.465C2673.39 121.78 2683.77 119.938 2695.79 119.938H2746.99V162.117H2708.3C2698.41 162.117 2691.72 163.862 2688.23 167.353C2684.93 170.843 2683.28 176.855 2683.28 185.388V294.471H2628.02V184.806Z" fill="black"/>
<path fill-rule="evenodd" clip-rule="evenodd" d="M1182.17 0.189901H1391.44L1046.22 348H836.945L1182.17 0.189901ZM196.502 348H0L245.17 100.406C314.002 26.8556 402.821 0 513.825 0H1140.48L1010.37 131.097H505.846C421.378 130.933 388.072 155.632 341.092 202.808L196.502 348Z" fill="#FF0000"/>
<path fill-rule="evenodd" clip-rule="evenodd" d="M413.337 344.809H233.536L349.001 228.873C427.649 149.904 445.786 152.994 578.392 153.436H987.542L870.228 270.749L564.658 270.5C527.763 270.469 489.605 270.194 453.564 305.454L413.337 344.809Z" fill="#FF0000"/>
</svg>
